<mxfile host="app.diagrams.net" modified="2021-03-31T07:30:47.616Z" agent="5.0 (Windows NT 6.1; Win64; x64) AppleWebKit/537.36 (KHTML, like Gecko) Chrome/89.0.4389.90 Safari/537.36" etag="gXY9m_Nur89AUaz7nbS9" version="14.5.1" type="github">
  <diagram id="sjkqXYMmPxr59-KuNzoe" name="第 1 页">
    <mxGraphModel dx="1416" dy="908" grid="1" gridSize="10" guides="1" tooltips="1" connect="1" arrows="1" fold="1" page="1" pageScale="1" pageWidth="1800" pageHeight="1000" math="0" shadow="0">
      <root>
        <mxCell id="0" />
        <mxCell id="1" parent="0" />
        <mxCell id="8DftsU8eviGZwW_QoNUk-15" value="" style="rounded=1;whiteSpace=wrap;html=1;fontFamily=Times New Roman;fontSize=20;fillColor=#fff2cc;strokeColor=#d6b656;arcSize=3;" vertex="1" parent="1">
          <mxGeometry x="1040" y="200" width="440" height="520" as="geometry" />
        </mxCell>
        <mxCell id="8DftsU8eviGZwW_QoNUk-14" value="" style="rounded=1;whiteSpace=wrap;html=1;fontFamily=Times New Roman;fontSize=20;fillColor=#fff2cc;strokeColor=#d6b656;arcSize=3;" vertex="1" parent="1">
          <mxGeometry x="200" y="200" width="520" height="560" as="geometry" />
        </mxCell>
        <mxCell id="8DftsU8eviGZwW_QoNUk-4" style="edgeStyle=elbowEdgeStyle;orthogonalLoop=1;jettySize=auto;html=1;fontFamily=Times New Roman;fontSize=20;rounded=1;elbow=vertical;" edge="1" parent="1" source="8DftsU8eviGZwW_QoNUk-1" target="8DftsU8eviGZwW_QoNUk-2">
          <mxGeometry relative="1" as="geometry" />
        </mxCell>
        <mxCell id="8DftsU8eviGZwW_QoNUk-5" style="edgeStyle=elbowEdgeStyle;rounded=1;orthogonalLoop=1;jettySize=auto;elbow=vertical;html=1;entryX=0.5;entryY=0;entryDx=0;entryDy=0;fontFamily=Times New Roman;fontSize=20;" edge="1" parent="1" source="8DftsU8eviGZwW_QoNUk-1" target="8DftsU8eviGZwW_QoNUk-3">
          <mxGeometry relative="1" as="geometry" />
        </mxCell>
        <mxCell id="8DftsU8eviGZwW_QoNUk-1" value="CDN" style="rounded=1;whiteSpace=wrap;html=1;fontFamily=Times New Roman;fontSize=20;fillColor=#d5e8d4;strokeColor=#82b366;" vertex="1" parent="1">
          <mxGeometry x="800" width="120" height="80" as="geometry" />
        </mxCell>
        <mxCell id="8DftsU8eviGZwW_QoNUk-24" style="edgeStyle=elbowEdgeStyle;rounded=1;orthogonalLoop=1;jettySize=auto;elbow=vertical;html=1;exitX=0;exitY=0.5;exitDx=0;exitDy=0;entryX=0.5;entryY=0;entryDx=0;entryDy=0;fontFamily=Times New Roman;fontSize=14;" edge="1" parent="1" source="8DftsU8eviGZwW_QoNUk-2" target="8DftsU8eviGZwW_QoNUk-9">
          <mxGeometry relative="1" as="geometry">
            <Array as="points">
              <mxPoint x="380" y="260" />
            </Array>
          </mxGeometry>
        </mxCell>
        <mxCell id="8DftsU8eviGZwW_QoNUk-25" style="edgeStyle=elbowEdgeStyle;rounded=1;orthogonalLoop=1;jettySize=auto;elbow=vertical;html=1;exitX=1;exitY=0.5;exitDx=0;exitDy=0;entryX=0.5;entryY=0;entryDx=0;entryDy=0;fontFamily=Times New Roman;fontSize=14;" edge="1" parent="1" source="8DftsU8eviGZwW_QoNUk-2" target="8DftsU8eviGZwW_QoNUk-16">
          <mxGeometry relative="1" as="geometry">
            <Array as="points">
              <mxPoint x="570" y="260" />
            </Array>
          </mxGeometry>
        </mxCell>
        <mxCell id="8DftsU8eviGZwW_QoNUk-26" style="edgeStyle=elbowEdgeStyle;rounded=1;orthogonalLoop=1;jettySize=auto;elbow=vertical;html=1;exitX=0.25;exitY=1;exitDx=0;exitDy=0;entryX=0.5;entryY=0;entryDx=0;entryDy=0;fontFamily=Times New Roman;fontSize=14;" edge="1" parent="1" source="8DftsU8eviGZwW_QoNUk-2" target="8DftsU8eviGZwW_QoNUk-17">
          <mxGeometry relative="1" as="geometry">
            <Array as="points">
              <mxPoint x="400" y="450" />
            </Array>
          </mxGeometry>
        </mxCell>
        <mxCell id="8DftsU8eviGZwW_QoNUk-27" style="edgeStyle=elbowEdgeStyle;rounded=1;orthogonalLoop=1;jettySize=auto;elbow=vertical;html=1;exitX=0.75;exitY=1;exitDx=0;exitDy=0;fontFamily=Times New Roman;fontSize=14;entryX=0.5;entryY=0;entryDx=0;entryDy=0;" edge="1" parent="1" source="8DftsU8eviGZwW_QoNUk-2" target="8DftsU8eviGZwW_QoNUk-18">
          <mxGeometry relative="1" as="geometry">
            <Array as="points">
              <mxPoint x="520" y="450" />
              <mxPoint x="500" y="500" />
            </Array>
          </mxGeometry>
        </mxCell>
        <mxCell id="8DftsU8eviGZwW_QoNUk-2" value="F5" style="rounded=1;whiteSpace=wrap;html=1;fontFamily=Times New Roman;fontSize=20;fillColor=#d5e8d4;strokeColor=#82b366;" vertex="1" parent="1">
          <mxGeometry x="400" y="220" width="120" height="80" as="geometry" />
        </mxCell>
        <mxCell id="8DftsU8eviGZwW_QoNUk-3" value="F5" style="rounded=1;whiteSpace=wrap;html=1;fontFamily=Times New Roman;fontSize=20;fillColor=#d5e8d4;strokeColor=#82b366;" vertex="1" parent="1">
          <mxGeometry x="1200" y="220" width="120" height="80" as="geometry" />
        </mxCell>
        <mxCell id="8DftsU8eviGZwW_QoNUk-9" value="ADS_Nginx_A1" style="rounded=1;whiteSpace=wrap;html=1;fontFamily=Times New Roman;fontSize=14;fillColor=#d5e8d4;strokeColor=#82b366;" vertex="1" parent="1">
          <mxGeometry x="280" y="360" width="120" height="60" as="geometry" />
        </mxCell>
        <mxCell id="8DftsU8eviGZwW_QoNUk-16" value="RCMND_Nginx_A1" style="rounded=1;whiteSpace=wrap;html=1;fontFamily=Times New Roman;fontSize=14;fillColor=#d5e8d4;strokeColor=#82b366;" vertex="1" parent="1">
          <mxGeometry x="520" y="360" width="120" height="60" as="geometry" />
        </mxCell>
        <mxCell id="8DftsU8eviGZwW_QoNUk-17" value="ADS_Nginx_A2" style="rounded=1;whiteSpace=wrap;html=1;fontFamily=Times New Roman;fontSize=14;fillColor=#d5e8d4;strokeColor=#82b366;" vertex="1" parent="1">
          <mxGeometry x="280" y="490" width="120" height="60" as="geometry" />
        </mxCell>
        <mxCell id="8DftsU8eviGZwW_QoNUk-18" value="&lt;span style=&quot;font-size: 14px&quot;&gt;RCMND_Nginx_A2&lt;/span&gt;" style="rounded=1;whiteSpace=wrap;html=1;fontFamily=Times New Roman;fontSize=16;fillColor=#d5e8d4;strokeColor=#82b366;" vertex="1" parent="1">
          <mxGeometry x="520" y="490" width="120" height="60" as="geometry" />
        </mxCell>
        <mxCell id="8DftsU8eviGZwW_QoNUk-19" value="ADS_Nginx_B1" style="rounded=1;whiteSpace=wrap;html=1;fontFamily=Times New Roman;fontSize=14;fillColor=#d5e8d4;strokeColor=#82b366;" vertex="1" parent="1">
          <mxGeometry x="1080" y="360" width="120" height="60" as="geometry" />
        </mxCell>
        <mxCell id="8DftsU8eviGZwW_QoNUk-20" value="RCMND_Nginx_B1" style="rounded=1;whiteSpace=wrap;html=1;fontFamily=Times New Roman;fontSize=14;fillColor=#d5e8d4;strokeColor=#82b366;" vertex="1" parent="1">
          <mxGeometry x="1320" y="360" width="120" height="60" as="geometry" />
        </mxCell>
        <mxCell id="8DftsU8eviGZwW_QoNUk-21" value="ADS_Nginx_B2" style="rounded=1;whiteSpace=wrap;html=1;fontFamily=Times New Roman;fontSize=14;fillColor=#d5e8d4;strokeColor=#82b366;" vertex="1" parent="1">
          <mxGeometry x="1080" y="470" width="120" height="60" as="geometry" />
        </mxCell>
        <mxCell id="8DftsU8eviGZwW_QoNUk-22" value="&lt;span style=&quot;font-size: 14px&quot;&gt;RCMND_Nginx_B2&lt;/span&gt;" style="rounded=1;whiteSpace=wrap;html=1;fontFamily=Times New Roman;fontSize=16;fillColor=#d5e8d4;strokeColor=#82b366;" vertex="1" parent="1">
          <mxGeometry x="1320" y="470" width="120" height="60" as="geometry" />
        </mxCell>
      </root>
    </mxGraphModel>
  </diagram>
</mxfile>
